# xmcd
#
# Track frame offsets: 
#        150
#        16934
#        38946
#        54752
#        70191
#        84181
#        102752
#        121617
#        135378
#        151740
#        174043
#        192086
#        213714
#        234795
#        251074
#
# Disc length: 3598 seconds
#
# Revision: 2
# Processed by: cddbd v1.5.2PL0 Copyright (c) Steve Scherf et al.
# Submitted via: ExactAudioCopyFreeDBPlugin 1.0
#
DISCID=a90e0c0f
DTITLE=Rous - Rous
DYEAR=2010
DGENRE=Pop
TTITLE0=Βουτιά στο κενό
TTITLE1=Λένε
TTITLE2=Κόκκινο φως
TTITLE3=Αφροδίτη
TTITLE4=Μαριονέτες
TTITLE5=Αταξία
TTITLE6=Εξαιρέσεις
TTITLE7=Είμαι από το φεγγάρι
TTITLE8=Τηλεόραση
TTITLE9=Ηλεκτρανθός
TTITLE10=Όλοι χορεύουν με την Κ.
TTITLE11=Γι αυτούς
TTITLE12=Το άδικο στο σώμα
TTITLE13=Τα φώτα της γης
TTITLE14=Εξαιρέσεις (Radio  Version)
EXTD=
EXTT0=
EXTT1=
EXTT2=
EXTT3=
EXTT4=
EXTT5=
EXTT6=
EXTT7=
EXTT8=
EXTT9=
EXTT10=
EXTT11=
EXTT12=
EXTT13=
EXTT14=
PLAYORDER=
